<svg width="193" height="53" viewBox="0 0 193 53" fill="none" xmlns="http://www.w3.org/2000/svg">
<g clip-path="url(#clip0_1_2)">
<mask id="mask0_1_2" style="mask-type:luminance" maskUnits="userSpaceOnUse" x="0" y="0" width="193" height="53">
<path d="M193 0.5H0V52.5H193V0.5Z" fill="white"/>
</mask>
<g mask="url(#mask0_1_2)">
<path d="M64.0081 21.124H57.1281V16.1H77.1921V21.124H70.3441V38.5H64.0081V21.124ZM90.5361 38.948C88.1681 38.948 86.0348 38.4467 84.1361 37.444C82.2588 36.4413 80.7761 35.0547 79.6881 33.284C78.6214 31.5133 78.0881 29.5187 78.0881 27.3C78.0881 25.0813 78.6214 23.0867 79.6881 21.316C80.7761 19.5453 82.2588 18.1587 84.1361 17.156C86.0348 16.1533 88.1681 15.652 90.5361 15.652C92.9041 15.652 95.0268 16.1533 96.9041 17.156C98.8028 18.1587 100.285 19.5453 101.352 21.316C102.44 23.0867 102.984 25.0813 102.984 27.3C102.984 29.5187 102.44 31.5133 101.352 33.284C100.285 35.0547 98.8028 36.4413 96.9041 37.444C95.0268 38.4467 92.9041 38.948 90.5361 38.948ZM90.5361 33.7C91.6668 33.7 92.6908 33.4333 93.6081 32.9C94.5254 32.3667 95.2508 31.62 95.784 30.66C96.3173 29.6787 96.5841 28.5587 96.5841 27.3C96.5841 26.0413 96.3173 24.932 95.784 23.972C95.2508 22.9907 94.5254 22.2333 93.6081 21.7C92.6908 21.1667 91.6668 20.9 90.5361 20.9C89.4054 20.9 88.3813 21.1667 87.4641 21.7C86.5468 22.2333 85.8214 22.9907 85.2881 23.972C84.7548 24.932 84.4881 26.0413 84.4881 27.3C84.4881 28.5587 84.7548 29.6787 85.2881 30.66C85.8214 31.62 86.5468 32.3667 87.4641 32.9C88.3813 33.4333 89.4054 33.7 90.5361 33.7ZM116.639 38.948C113.311 38.948 110.719 38.0413 108.863 36.228C107.028 34.4147 106.111 31.844 106.111 28.516V16.1H112.447V28.324C112.447 31.908 113.865 33.7 116.703 33.7C119.519 33.7 120.927 31.908 120.927 28.324V16.1H127.167V28.516C127.167 31.844 126.239 34.4147 124.383 36.228C122.548 38.0413 119.967 38.948 116.639 38.948ZM141.251 32.548H137.795V38.5H131.459V16.1H141.699C143.725 16.1 145.485 16.4413 146.979 17.124C148.472 17.7853 149.624 18.7453 150.435 20.004C151.245 21.2413 151.651 22.7027 151.651 24.388C151.651 26.0093 151.267 27.428 150.499 28.644C149.752 29.8387 148.675 30.7773 147.267 31.46L152.099 38.5H145.315L141.251 32.548ZM145.251 24.388C145.251 23.3427 144.92 22.532 144.259 21.956C143.597 21.38 142.616 21.092 141.315 21.092H137.795V27.652H141.315C142.616 27.652 143.597 27.3747 144.259 26.82C144.92 26.244 145.251 25.4333 145.251 24.388ZM155.146 16.1H161.482V33.476H172.17V38.5H155.146V16.1ZM184.396 30.468V38.5H178.06V30.372L169.516 16.1H176.204L181.516 24.996L186.828 16.1H192.972L184.396 30.468Z" fill="#3A78C9"/>
<mask id="mask1_1_2" style="mask-type:luminance" maskUnits="userSpaceOnUse" x="-9" y="-13" width="74" height="75">
<path d="M28 -12.2696L-8.76953 24.5L28 61.2696L64.7696 24.5L28 -12.2696Z" fill="white"/>
</mask>
<g mask="url(#mask1_1_2)">
<path d="M37.9551 44.4202L36.0433 46.3319C35.8512 46.524 35.614 46.6647 35.3534 46.7414C35.0927 46.8181 34.8171 46.8282 34.5515 46.7709C34.286 46.7135 34.0391 46.5905 33.8334 46.4131C33.6277 46.2356 33.4697 46.0095 33.374 45.7552L27.7874 30.9103L20.682 37.7069L21.2185 43.3135C21.3427 44.4044 21.2278 45.0608 20.2439 46.0447L18.957 47.3316C18.7598 47.5419 18.5148 47.7016 18.2428 47.7971C17.9707 47.8926 17.6797 47.9211 17.3943 47.8803C16.9928 47.8207 16.4341 47.598 16.0406 46.877L12.365 40.3547C12.3378 40.3059 12.3126 40.2549 12.2896 40.2032C12.2868 40.1989 12.2831 40.1953 12.2789 40.1924C12.2267 40.1699 12.1759 40.1445 12.1266 40.1163L5.57061 36.4099C4.86969 36.0178 4.6564 35.467 4.6011 35.0727C4.56389 34.8079 4.58935 34.538 4.67541 34.2848C4.76147 34.0316 4.90574 33.8021 5.09663 33.6148L6.45537 32.2561C7.19005 31.5214 8.23281 31.1379 9.18436 31.2507L14.6868 31.7878L21.5725 24.6953L6.74694 19.1253C6.49269 19.0298 6.26645 18.872 6.0889 18.6665C5.91135 18.4609 5.78815 18.2141 5.73058 17.9487C5.673 17.6832 5.68288 17.4076 5.75932 17.1469C5.83575 16.8863 5.9763 16.649 6.16811 16.4567L8.10067 14.5241C8.3757 14.2599 8.70671 14.0611 9.06912 13.9423C9.43154 13.8236 9.81604 13.788 10.1941 13.8383L30.0905 15.7737L34.1302 11.5158C34.4174 11.1955 35.2534 10.348 35.448 10.1534C39.4187 6.18704 43.0769 5.1055 45.2357 7.26427C45.9151 7.94365 46.9033 9.47476 45.8885 12.0924C45.2903 13.6386 44.0996 15.3091 42.3502 17.0585C42.1577 17.251 41.3124 18.0847 40.9878 18.3763L36.7292 22.4138L38.6423 42.3325C38.6915 42.7098 38.6553 43.0932 38.5363 43.4546C38.4173 43.8159 38.2187 44.1459 37.9551 44.4202Z" fill="#3A78C9"/>
</g>
</g>
</g>
<defs>
<clipPath id="clip0_1_2">
<rect width="193" height="52" fill="white" transform="translate(0 0.5)"/>
</clipPath>
</defs>
</svg>
