<svg width="98.56" height="14" viewBox="0 0 66 10" fill="none" xmlns="http://www.w3.org/2000/svg">
<path d="M2.25665 9.33966C2.0154 9.46341 1.74165 9.24654 1.7904 8.96966L2.30915 6.01342L0.107283 3.91593C-0.0983413 3.71968 0.00853337 3.36093 0.284158 3.32218L3.3454 2.88718L4.7104 0.182812C4.83352 -0.0609373 5.16664 -0.0609373 5.28977 0.182812L6.65477 2.88718L9.71601 3.32218C9.99163 3.36093 10.0985 3.71968 9.89226 3.91593L7.69101 6.01342L8.20976 8.96966C8.25851 9.24654 7.98476 9.46341 7.74351 9.33966L4.99914 7.92967L2.25665 9.33966Z" fill="white"/>
<path d="M16.2567 9.33966C16.0154 9.46341 15.7417 9.24654 15.7904 8.96966L16.3092 6.01342L14.1073 3.91593C13.9017 3.71968 14.0085 3.36093 14.2842 3.32218L17.3454 2.88718L18.7104 0.182812C18.8335 -0.0609373 19.1666 -0.0609373 19.2898 0.182812L20.6548 2.88718L23.716 3.32218C23.9916 3.36093 24.0985 3.71968 23.8923 3.91593L21.691 6.01342L22.2098 8.96966C22.2585 9.24654 21.9848 9.46341 21.7435 9.33966L18.9991 7.92967L16.2567 9.33966Z" fill="white"/>
<path d="M30.2567 9.33966C30.0154 9.46341 29.7417 9.24654 29.7904 8.96966L30.3092 6.01342L28.1073 3.91593C27.9017 3.71968 28.0085 3.36093 28.2842 3.32218L31.3454 2.88718L32.7104 0.182812C32.8335 -0.0609373 33.1666 -0.0609373 33.2898 0.182812L34.6548 2.88718L37.716 3.32218C37.9916 3.36093 38.0985 3.71968 37.8923 3.91593L35.691 6.01342L36.2098 8.96966C36.2585 9.24654 35.9848 9.46341 35.7435 9.33966L32.9991 7.92967L30.2567 9.33966Z" fill="white"/>
<path d="M44.2567 9.33966C44.0154 9.46341 43.7417 9.24654 43.7904 8.96966L44.3092 6.01342L42.1073 3.91593C41.9017 3.71968 42.0085 3.36093 42.2842 3.32218L45.3454 2.88718L46.7104 0.182812C46.8335 -0.0609373 47.1666 -0.0609373 47.2898 0.182812L48.6548 2.88718L51.716 3.32218C51.9916 3.36093 52.0985 3.71968 51.8923 3.91593L49.691 6.01342L50.2098 8.96966C50.2585 9.24654 49.9848 9.46341 49.7435 9.33966L46.9991 7.92967L44.2567 9.33966Z" fill="white"/>
<path d="M58.2567 9.33966C58.0154 9.46341 57.7417 9.24654 57.7904 8.96966L58.3092 6.01342L56.1073 3.91593C55.9017 3.71968 56.0085 3.36093 56.2842 3.32218L59.3454 2.88718L60.7104 0.182812C60.8335 -0.0609373 61.1666 -0.0609373 61.2898 0.182812L62.6548 2.88718L65.716 3.32218C65.9916 3.36093 66.0985 3.71968 65.8923 3.91593L63.691 6.01342L64.2098 8.96966C64.2585 9.24654 63.9848 9.46341 63.7435 9.33966L60.9991 7.92967L58.2567 9.33966Z" fill="#CCCCCC"/>
</svg>
